<svg width="120" height="120" viewBox="0 0 120 120" fill="none" xmlns="http://www.w3.org/2000/svg">
<rect x="1" y="1" width="118" height="118" rx="9" fill="white"/>
<rect x="1" y="1" width="118" height="118" rx="9" stroke="black" stroke-width="2"/>
<rect width="120" height="118" fill="#FFE001"/>
<rect x="23.5" y="22.5" width="73" height="73" rx="5.5" fill="white" stroke="black" stroke-width="5"/>
<path d="M34 82.5625C34 82.5625 34.0125 77.3338 34 70.375C33.9937 66.8625 34.9385 61.6982 36.4375 59C42.2463 48.5442 56.2607 49.7485 60.8125 38.6875C63.2276 32.819 63.25 31.375 63.25 31.375M79.5 31.375C79.5 31.375 79.4776 32.819 77.0625 38.6875C72.5107 49.7485 58.4963 48.5442 52.6875 59C51.1885 61.6982 50.2437 66.8625 50.25 70.375C50.2625 77.3338 50.25 82.5625 50.25 82.5625" stroke="#FF0000" stroke-width="3"/>
<line x1="33.875" y1="31.375" x2="33.875" y2="83.375" stroke="black" stroke-width="3"/>
<line x1="50.125" y1="31.375" x2="50.125" y2="83.375" stroke="black" stroke-width="3"/>
<rect x="59.375" y="68.125" width="27.25" height="14.25" rx="3" fill="#21AFD3" stroke="black" stroke-width="2"/>
<circle cx="83.5" cy="64.5" r="7" fill="#E7C616" stroke="black"/>
<line x1="83.5" y1="60" x2="83.5" y2="69" stroke="black"/>
<line x1="79" y1="64.5" x2="88" y2="64.5" stroke="black"/>
</svg>
