<svg width="120" height="120" viewBox="0 0 120 120" fill="none" xmlns="http://www.w3.org/2000/svg">
<rect x="1" y="1" width="118" height="118" rx="9" fill="white"/>
<rect x="1" y="1" width="118" height="118" rx="9" stroke="black" stroke-width="2"/>
<rect width="120" height="118" fill="#FFE001"/>
<circle cx="60.5" cy="58.5" r="39" fill="white" stroke="black" stroke-width="5"/>
<g clip-path="url(#clip0_18_331)">
<path d="M81.9901 52.1287C85.0725 63.6327 78.2144 75.4969 66.7104 78.5794L66.6414 78.5979L73.9684 81.0615C74.6878 81.3019 75.0773 82.0851 74.8369 82.8046C74.5965 83.524 73.8133 83.9135 73.0939 83.6731L62.4681 80.0965C62.0847 79.9668 61.7853 79.6772 61.633 79.306C61.6072 79.2495 61.594 79.2002 61.5782 79.141C61.491 78.8157 61.5248 78.4686 61.6855 78.1614L66.9552 67.8216C67.3029 67.1473 68.1276 66.8735 68.8117 67.2185C69.4859 67.5661 69.7597 68.3908 69.4147 69.0749L65.8987 75.9442L65.9973 75.9178C76.0423 73.2263 82.0174 62.877 79.3285 52.8419C76.6396 42.8068 66.2877 36.8218 56.2427 39.5133C46.1977 42.2049 40.2226 52.5541 42.9115 62.5892C44.2137 67.4491 47.332 71.5159 51.6915 74.0245C52.3539 74.407 52.5785 75.2449 52.196 75.9074C51.8135 76.5698 50.9756 76.7943 50.3132 76.4119C45.3136 73.5253 41.7423 68.872 40.2499 63.3024C37.1701 51.8083 44.0158 39.9369 55.5296 36.8518C67.0433 33.7667 78.9076 40.6248 81.9901 52.1287Z" fill="#FF015A"/>
</g>
<defs>
<clipPath id="clip0_18_331">
<rect width="50" height="50" fill="white" transform="matrix(-1 0 0 1 89 34)"/>
</clipPath>
</defs>
</svg>
