<svg width="120" height="120" viewBox="0 0 120 120" fill="none" xmlns="http://www.w3.org/2000/svg">
<rect x="1" y="1" width="118" height="118" rx="9" fill="white"/>
<rect x="1" y="1" width="118" height="118" rx="9" stroke="black" stroke-width="2"/>
<rect width="120" height="118" fill="#FFE001"/>
<circle cx="60.5" cy="58.5" r="39" fill="white" stroke="black" stroke-width="5"/>
<circle cx="61" cy="58" r="30" fill="#FF015A"/>
<path d="M45.6364 45.7273L50.3295 53.6591H50.5114L55.2273 45.7273H60.7841L53.6818 57.3636L60.9432 69H55.2841L50.5114 61.0568H50.3295L45.5568 69H39.9205L47.2045 57.3636L40.0568 45.7273H45.6364ZM63.7614 69V65.4545L72.0455 57.7841C72.75 57.1023 73.3409 56.4886 73.8182 55.9432C74.303 55.3977 74.6705 54.8636 74.9205 54.3409C75.1705 53.8106 75.2955 53.2386 75.2955 52.625C75.2955 51.9432 75.1402 51.3561 74.8295 50.8636C74.5189 50.3636 74.0947 49.9811 73.5568 49.7159C73.0189 49.4432 72.4091 49.3068 71.7273 49.3068C71.0152 49.3068 70.3939 49.4508 69.8636 49.7386C69.3333 50.0265 68.9242 50.4394 68.6364 50.9773C68.3485 51.5152 68.2045 52.1553 68.2045 52.8977H63.5341C63.5341 51.375 63.8788 50.053 64.5682 48.9318C65.2576 47.8106 66.2235 46.9432 67.4659 46.3295C68.7083 45.7159 70.1402 45.4091 71.7614 45.4091C73.428 45.4091 74.8788 45.7045 76.1136 46.2955C77.3561 46.8788 78.322 47.6894 79.0114 48.7273C79.7008 49.7652 80.0455 50.9545 80.0455 52.2955C80.0455 53.1742 79.8712 54.0417 79.5227 54.8977C79.1818 55.7538 78.572 56.7045 77.6932 57.75C76.8144 58.7879 75.5758 60.0341 73.9773 61.4886L70.5795 64.8182V64.9773H80.3523V69H63.7614Z" fill="white"/>
</svg>
