<svg width="120" height="120" viewBox="0 0 120 120" fill="none" xmlns="http://www.w3.org/2000/svg">
<rect x="1" y="1" width="118" height="118" rx="9" fill="white"/>
<rect x="1" y="1" width="118" height="118" rx="9" stroke="black" stroke-width="2"/>
<rect width="120" height="118" fill="#FFE001"/>
<circle cx="60" cy="59" r="37.5" fill="#7DBAD7" stroke="black" stroke-width="5"/>
<line x1="49.6544" y1="49.0824" x2="69.9175" y2="69.3455" stroke="black" stroke-width="2"/>
<line x1="48.2715" y1="69.3155" x2="70.3768" y2="49.0523" stroke="black" stroke-width="2"/>
<circle cx="80.2631" cy="38.7368" r="13.7368" fill="white" stroke="black" stroke-width="2"/>
<path d="M79.6373 43.9368L71.4764 43.8885L80.2655 29.59L89.1676 43.9932L79.6373 43.9368Z" fill="white" stroke="black" stroke-width="2"/>
<circle cx="80.2631" cy="79.2631" r="13.7368" fill="white" stroke="black" stroke-width="2"/>
<rect x="72.0526" y="71.0526" width="16.4211" height="16.4211" rx="8.21053" fill="white" stroke="black" stroke-width="2"/>
<circle cx="39.7368" cy="79.2631" r="13.7368" fill="white" stroke="black" stroke-width="2"/>
<path d="M35.1091 87.4737L31.7026 77.9384L39.5864 71.3468L47.7669 77.9505L44.3647 87.4737H39.5753H35.1091Z" fill="white" stroke="black" stroke-width="2"/>
<circle cx="39.7368" cy="38.7368" r="13.7368" fill="white" stroke="black" stroke-width="2"/>
<rect x="33.3684" y="32.3684" width="12.7368" height="12.7368" fill="white" stroke="black" stroke-width="2"/>
</svg>
