<svg width="200" height="120" viewBox="0 0 200 120" fill="none" xmlns="http://www.w3.org/2000/svg">
<g clip-path="url(#clip0_3_3394)">
<rect width="200" height="120" rx="10" fill="white"/>
<rect width="200" height="113" fill="#7DBAD7"/>
<path d="M2.5 32H10.5V23H53.5V35.5H60V43H80V49.5M80 49.5H69.5V94M80 49.5H89.5M69.5 113V111M124 49.5V40H143M124 49.5H113M124 49.5V91.5V113M148 113V102.125M89.5 49.5V21.5L113 10.5V49.5M89.5 49.5H113M143 40H148V48M143 40C143 40 144.286 35.6523 146.193 30M173.5 40C171.155 33.3535 169.33 29.8372 165 24M173.5 40C172.643 36.4297 171.542 32.0029 170.277 27.5M173.5 40C173.81 41.2931 174.083 42.6344 174.323 44M176 69.5C170.279 50.1081 165.131 40.1295 156 24M176 69.5C176 69.5 176.089 66.4574 175.966 62M176 69.5V91.25M176 113V102.125M101 37.5V45M105 27V45M108.5 19V45M14.5 25.5H49.5M14.5 27.5H49.5M14.5 29.5H49.5M14.5 31.5H49.5M74 54V62M76 54V62M78 54V62M80 54V62M128 44H144.5M144.5 49.5H128M144.5 53.5H128M144.5 58H128M144.5 62.5H128M148.293 24C151.718 14.5818 156.069 4.5 159 4.5C162.522 4.5 166.25 13.9329 169.263 24M148.293 24C147.54 26.0701 146.832 28.1081 146.193 30M148.293 24C159.972 39.9523 164.535 51.009 171.5 70.5M148.293 24H156M169.263 24H165M169.263 24C169.611 25.1627 169.949 26.3339 170.277 27.5M146.193 30C154.199 43.7267 158.811 53.397 165.5 70.5M156 24H159M165 24C157.268 39.6743 153.561 49.6703 148 69.5M165 24H159M148 69.5V48M148 69.5V100.5M159 24C153.911 32.8661 151.498 38.1178 148 48M170.277 27.5C162.744 43.1059 158.717 53.3278 153.5 70.5M174.323 44H191V31.5H200M174.323 44C175.421 50.2505 175.827 57.0113 175.966 62M175.966 62H192V113M185 49V57.5M187 49V57.5M189 49V57.5M191 49V57.5M113 113V111M62 21.5L66.5 16M67 21.5L71.5 16M71.5 21.5L76 16M76 21.5L80.5 16M18.5 5.5L21 7.5L23.5 4.5M25 11.5L27.5 14L31 9.5M60 14H87C87 14 87.3369 12.4163 87 11.5C86.2743 9.52613 85.0796 9.31306 83 9C81.6484 8.79653 78.5 9.5 78.5 9.5C78.5 9.5 76.3412 5.69161 74 4.5C71.0417 2.99427 68.5256 3.13447 65.5 4.5C62.6028 5.8076 60.6848 7.39601 60 10.5C59.7055 11.8347 60 14 60 14Z" stroke="white"/>
<path d="M45 104.5C42.5418 106.553 40 111 40 111H116C116 111 116.354 105.415 115.5 102C114.779 99.1147 114.185 97.4508 112.5 95C110.936 92.7245 109.74 91.6154 107.5 90C104.879 88.1093 103.096 87.4267 100 86.5C95.6813 85.2074 92.985 85.0459 88.5 85.5C84.2571 85.9296 81.8676 86.7032 78 88.5C73.9232 90.3939 71.7207 91.864 68.5 95C66.0091 97.4253 63 102 63 102C63 102 54.7477 99.6914 50 101.5C47.872 102.311 46.7479 103.04 45 104.5Z" stroke="white"/>
<rect y="114" width="200" height="6" fill="#7DBAD7"/>
<mask id="path-7-inside-1_3_3394" fill="white">
<path d="M35 113C35 111.293 34.6249 109.602 33.8963 108.025C33.1676 106.448 32.0995 105.015 30.753 103.808C29.4066 102.6 27.8081 101.643 26.0489 100.99C24.2897 100.336 22.4042 100 20.5 100C18.5958 100 16.7103 100.336 14.9511 100.99C13.1919 101.643 11.5934 102.6 10.247 103.808C8.9005 105.015 7.83244 106.448 7.10375 108.025C6.37505 109.602 6 111.293 6 113L20.5 113H35Z"/>
</mask>
<path d="M35 113C35 111.293 34.6249 109.602 33.8963 108.025C33.1676 106.448 32.0995 105.015 30.753 103.808C29.4066 102.6 27.8081 101.643 26.0489 100.99C24.2897 100.336 22.4042 100 20.5 100C18.5958 100 16.7103 100.336 14.9511 100.99C13.1919 101.643 11.5934 102.6 10.247 103.808C8.9005 105.015 7.83244 106.448 7.10375 108.025C6.37505 109.602 6 111.293 6 113L20.5 113H35Z" fill="#571C6E" stroke="black" stroke-width="2" mask="url(#path-7-inside-1_3_3394)"/>
<line x1="32" y1="113" x2="32" y2="80" stroke="black" stroke-width="2"/>
<circle cx="32" cy="58" r="23" fill="white" stroke="black" stroke-width="2"/>
<path d="M30.6152 65.5L16.4207 65.5L31.9881 43.2608L47.1107 65.5L30.6152 65.5Z" fill="white" stroke="black" stroke-width="2"/>
<path d="M31 105.5C28.5418 107.553 30 111 30 111H67C67 111 67.4464 107.538 66.7613 105.5C65.9826 103.184 65 102 63.5 100.5C62 99 59.4752 96.8511 56 96.5C52.1291 96.1089 48.2207 96.364 45 99.5C42.5091 101.925 40.5 104.5 40.5 104.5H34.5C34.5 104.5 32.7478 104.04 31 105.5Z" fill="#449C15" stroke="black"/>
<path d="M84.9999 94.5H89.5H92.9999H95.4999C95.4999 94.5 95.9343 91.5114 95.9999 88.5C96.036 86.8419 96.3575 85.1768 95.4999 84C94.0006 81.9425 92.5434 80.3881 89.9999 80.5C87.6188 80.6049 86.3791 82.0561 84.9999 84C84.1597 85.1844 84.4661 86.8467 84.4999 88.5C84.5617 91.5151 84.9999 94.5 84.9999 94.5Z" fill="#21AFD3"/>
<path d="M84.5001 111L89.5 94.5M89.5 94.5H84.9999C84.9999 94.5 84.5617 91.5151 84.4999 88.5C84.4661 86.8467 84.1597 85.1844 84.9999 84C86.3791 82.0561 87.6188 80.6049 89.9999 80.5C92.5434 80.3881 94.0006 81.9425 95.4999 84C96.3575 85.1768 96.036 86.8419 95.9999 88.5C95.9343 91.5114 95.4999 94.5 95.4999 94.5H92.9999M89.5 94.5H92.9999M92.9999 94.5V100.5V111" stroke="black"/>
<path d="M74 94H78.5H82V100.5H74V94Z" fill="#311550"/>
<path d="M84.5 85L78.5 90V94M78.5 94H74V100.5H82V94H78.5Z" stroke="black"/>
<circle cx="90.5" cy="75.5" r="2.5" fill="black"/>
<path d="M95.5 83.5C95.5 83.5 99.0542 81.4938 100.5 79.5C101.845 77.6447 103 74 103 74" stroke="black"/>
<path d="M184.5 105.5C182.975 105.839 180.5 105.5 180.5 105.5C180.5 105.5 178.344 105.75 177 105.5C173.061 104.766 170.846 102.274 169.5 98.5C168.516 95.7412 169.5 91 169.5 91L179.5 58L191.5 91C191.5 91 192.465 95.7345 191.5 98.5C190.227 102.15 188.274 104.661 184.5 105.5Z" fill="#39940A"/>
<path d="M180.5 111V105.5M180.5 105.5C180.5 105.5 182.975 105.839 184.5 105.5C188.274 104.661 190.227 102.15 191.5 98.5C192.465 95.7345 191.5 91 191.5 91L179.5 58L169.5 91C169.5 91 168.516 95.7412 169.5 98.5C170.846 102.274 173.061 104.766 177 105.5C178.344 105.75 180.5 105.5 180.5 105.5Z" stroke="black"/>
<rect x="117" y="71" width="62" height="20" fill="#F7C703" stroke="black" stroke-width="2"/>
<circle cx="126" cy="79" r="4" fill="#E40B0B"/>
<circle cx="137" cy="79" r="4" fill="#27BD99"/>
<circle cx="151" cy="77" r="2" fill="black"/>
<circle cx="157" cy="77" r="2" fill="black"/>
<circle cx="163" cy="77" r="2" fill="black"/>
<path d="M174.354 88.1465C174.63 88.1465 174.854 87.9226 174.854 87.6465L174.854 83.1465C174.854 82.8703 174.63 82.6465 174.354 82.6465C174.077 82.6465 173.854 82.8703 173.854 83.1465L173.854 87.1465L169.854 87.1465C169.577 87.1465 169.354 87.3703 169.354 87.6465C169.354 87.9226 169.577 88.1465 169.854 88.1465L174.354 88.1465ZM167 81L174 88L174.707 87.2929L167.707 80.2929L167 81Z" fill="black"/>
<line x1="128.5" y1="100" x2="128.5" y2="92" stroke="black"/>
<line x1="166.5" y1="100" x2="166.5" y2="92" stroke="black"/>
<rect x="116" y="99" width="64" height="14" fill="#27BD99"/>
<circle cx="118.5" cy="111.5" r="1.5" fill="#05053C"/>
<circle cx="128.5" cy="111.5" r="1.5" fill="#05053C"/>
<circle cx="137.5" cy="111.5" r="1.5" fill="#05053C"/>
<circle cx="146.5" cy="111.5" r="1.5" fill="#05053C"/>
<path d="M124.5 88C124.5 87.1716 125.172 86.5 126 86.5H129C129.828 86.5 130.5 87.1716 130.5 88V89.5H124.5V88Z" fill="#F7C703" stroke="black"/>
<path d="M150 93V110H110.5V102L112 100.5H119V93L121.5 90H146.5L150 93Z" fill="#1B0943" stroke="black"/>
<rect x="119.5" y="94.5" width="11" height="6" fill="#E0D2D2" stroke="black"/>
<rect x="133.5" y="94.5" width="6" height="6" fill="#E0D2D2" stroke="black"/>
<rect x="140.5" y="94.5" width="6" height="6" fill="#E0D2D2" stroke="black"/>
<circle cx="118.5" cy="104.5" r="1.5" fill="#D9D9D9"/>
<circle cx="113.5" cy="104.5" r="1.5" fill="#D9D9D9"/>
<line y1="112.5" x2="200" y2="112.5" stroke="#04276B" stroke-width="3"/>
<path d="M81.1031 74H72.6031H64.1031C64.1031 74 63.8711 72.1484 64.1031 71C64.9075 67.0173 68.5399 65 72.6031 65C76.6662 65 80.2987 67.0173 81.1031 71C81.335 72.1484 81.1031 74 81.1031 74Z" fill="#E21D5F"/>
<path d="M72.6031 91V74M72.6031 74H81.1031C81.1031 74 81.335 72.1484 81.1031 71C80.2987 67.0173 76.6662 65 72.6031 65C68.5399 65 64.9075 67.0173 64.1031 71C63.8711 72.1484 64.1031 74 64.1031 74H72.6031Z" stroke="black"/>
<circle cx="65.5" cy="78.5" r="2.5" fill="black"/>
<path d="M61.5 106L66 92.5L71.5 106H61.5Z" fill="#5A7F4E"/>
<path d="M47.5 106L53 97L58.5 101L53 109.5L47.5 106Z" fill="#510840"/>
<path d="M63 84.5L63.5 83H68L68.5 84.5L66 88L63 84.5Z" fill="#393960"/>
<path d="M63.5 111L66 106M66 106H61.5L66 92.5M66 106H69M66 92.5V88M66 92.5L71.5 106H69M66 88L63 84.5M66 88L68.5 84.5L68 83H63.5L63 84.5M63 84.5C63 84.5 60.8625 85.0142 60 86C59.425 86.6572 59.2298 87.1575 59 88C58.6917 89.1303 58.5385 89.9232 59 91C59.4351 92.0153 61 93 61 93L56.5 99.5M56.5 99.5L53 97L47.5 106L53 109.5L58.5 101L56.5 99.5ZM69 106L70.5 111" stroke="black"/>
<path d="M67.5 85.5C67.5 85.5 68.612 88.054 70 89C70.8689 89.5922 72.5 90 72.5 90" stroke="black"/>
</g>
<rect x="1" y="1" width="198" height="118" rx="9" stroke="black" stroke-width="2"/>
<defs>
<clipPath id="clip0_3_3394">
<rect width="200" height="120" rx="10" fill="white"/>
</clipPath>
</defs>
</svg>
